<svg id="Ebene_1" data-name="Ebene 1" xmlns="http://www.w3.org/2000/svg" xmlns:xlink="http://www.w3.org/1999/xlink" viewBox="0 0 214 137"><defs><style>.cls-1,.cls-10,.cls-12,.cls-8{fill:none;}.cls-2{isolation:isolate;}.cls-3{opacity:0.42;}.cls-4{fill:#84a7c3;}.cls-5{opacity:0.16;}.cls-6{fill:#a1c535;}.cls-7{clip-path:url(#clip-path);}.cls-8{stroke:#96d823;}.cls-10,.cls-12,.cls-8{stroke-miterlimit:10;stroke-width:12px;}.cls-9{clip-path:url(#clip-path-2);}.cls-10{stroke:#2e90e8;}.cls-11{clip-path:url(#clip-path-3);}.cls-12{stroke:#ea1f5e;}.cls-13{fill:#a5043e;}.cls-14{fill:#1c6ac6;}</style><clipPath id="clip-path"><polygon class="cls-1" points="73.35 51.29 107.88 34.34 140.59 49.59 106.07 66.54 73.35 51.29"/></clipPath><clipPath id="clip-path-2"><polygon class="cls-1" points="105.07 66.54 139.59 49.59 140.43 90.36 105.91 107.31 105.07 66.54"/></clipPath><clipPath id="clip-path-3"><polygon class="cls-1" points="105.97 119.45 72.68 109.45 72.68 51.45 104.97 66.45 105.97 119.45"/></clipPath></defs><title>Zeichenfläche 2 Kopie</title><g class="cls-2"><g class="cls-3"><polygon class="cls-4" points="105.07 66.54 139.59 49.59 140.43 90.36 105.91 107.31 105.07 66.54"/></g><g class="cls-5"><polygon class="cls-6" points="72.35 51.29 106.88 34.34 139.59 49.59 105.07 66.54 72.35 51.29"/></g></g><g class="cls-7"><polygon class="cls-8" points="107 100.68 80.23 88.2 79.54 54.84 107.79 40.97 134.56 53.45 135.25 86.81 107 100.68"/></g><g class="cls-9"><polygon class="cls-10" points="106 100.68 79.23 88.2 78.54 54.84 106.79 40.97 133.56 53.45 134.25 86.81 106 100.68"/></g><g class="cls-11"><polygon class="cls-12" points="106 100.68 79.23 88.2 78.54 54.84 106.79 40.97 133.56 53.45 134.25 86.81 106 100.68"/></g><polygon class="cls-13" points="73.35 92.12 85.35 84.45 84.35 58.45 72.68 51.45 73.35 92.12"/><polyline class="cls-14" points="127.58 57.41 139.59 49.59 140.43 90.36 128 83"/></svg>