<?xml version="1.0" standalone="no"?>
<!DOCTYPE svg PUBLIC "-//W3C//DTD SVG 20010904//EN"
 "http://www.w3.org/TR/2001/REC-SVG-20010904/DTD/svg10.dtd">
<svg version="1.0" xmlns="http://www.w3.org/2000/svg"
 width="512.000000pt" height="512.000000pt" viewBox="0 0 512.000000 512.000000"
 preserveAspectRatio="xMidYMid meet">
<metadata>
Created by potrace 1.11, written by Peter Selinger 2001-2013
</metadata>
<g transform="translate(0.000000,512.000000) scale(0.100000,-0.100000)"
fill="#000000" stroke="none">
<path d="M1448 4483 l-1107 -638 -1 -1285 0 -1286 1101 -634 c605 -349 1109
-635 1118 -635 10 0 514 286 1120 635 l1101 635 0 1285 -1 1285 -147 84 c-81
46 -575 330 -1099 632 -524 302 -958 552 -965 554 -7 3 -511 -282 -1120 -632z
m1793 -750 c367 -214 668 -390 669 -393 0 -3 -303 -178 -673 -391 l-672 -385
-3 -783 c-1 -456 -6 -781 -11 -779 -5 2 -311 178 -680 393 l-671 390 0 775 0
776 673 391 c369 216 678 392 686 392 7 1 314 -173 682 -386z"/>
</g>
</svg>
