<?xml version="1.0" encoding="UTF-8"?>
<!--
    Licensed to the Apache Software Foundation (ASF) under one
    or more contributor license agreements.  See the NOTICE file
    distributed with this work for additional information
    regarding copyright ownership.  The ASF licenses this file
    to you under the Apache License, Version 2.0 (the
    "License"); you may not use this file except in compliance
    with the License.  You may obtain a copy of the License at
      http://www.apache.org/licenses/LICENSE-2.0
    Unless required by applicable law or agreed to in writing,
    software distributed under the License is distributed on an
    "AS IS" BASIS, WITHOUT WARRANTIES OR CONDITIONS OF ANY
    KIND, either express or implied.  See the License for the
    specific language governing permissions and limitations
    under the License.
-->
<svg width="260px" height="288px" viewBox="0 0 260 288" version="1.1" xmlns="http://www.w3.org/2000/svg" xmlns:xlink="http://www.w3.org/1999/xlink">
    <title>apache-netbeans</title>
    <g stroke="none" stroke-width="0" fill="none" fill-rule="evenodd" >
        <path d="M130,288 L0,217 L0,72 L50,100 L50,188 L130,232" fill="#327CC5"/>
        <path d="M0,72 L50,100 L130,54 L210,100 L260,72 L130,0 Z" fill="#326FB8"/>
        <path d="M130,54 L210,100 L130,145 L50,100 Z" fill="#DCDFE7"/>
        <path d="M50,100 L130,145 L130,232 L50,188 Z" fill="#FFFFFF"/>
        <path d="M130,145 L210,100 L210,188 L130,232 Z" fill="#C9DAE9"/>
        <path d="M130,288 L260,217 L260,72 L210,100 L210,188 L130,232" fill="#538EC7"/>
    </g>
</svg>
