<svg id="Ebene_1" data-name="Ebene 1" xmlns="http://www.w3.org/2000/svg" xmlns:xlink="http://www.w3.org/1999/xlink" viewBox="0 0 428 137"><defs><style>.cls-1,.cls-14,.cls-3,.cls-5,.cls-7{fill:none;}.cls-2{clip-path:url(#clip-path);}.cls-3{stroke:#96d823;}.cls-14,.cls-3,.cls-5,.cls-7{stroke-miterlimit:10;}.cls-3,.cls-5,.cls-7{stroke-width:12px;}.cls-4{clip-path:url(#clip-path-2);}.cls-5{stroke:#1ccec6;}.cls-6{clip-path:url(#clip-path-3);}.cls-7{stroke:#ea1f5e;}.cls-8{fill:#a5043e;}.cls-10,.cls-9{fill:#1897a8;}.cls-10{font-size:36px;}.cls-10,.cls-13{font-family:Ubuntu;}.cls-11,.cls-13{font-weight:700;}.cls-12{fill:#ef4ba9;}.cls-13{font-size:13.91px;fill:#fff;}.cls-14{stroke:#fff;stroke-width:10px;}</style><clipPath id="clip-path"><polygon class="cls-1" points="96.35 44.29 130.88 27.34 163.59 42.59 129.07 59.54 96.35 44.29"/></clipPath><clipPath id="clip-path-2"><polygon class="cls-1" points="128.07 59.54 162.59 42.59 163.43 83.36 128.91 100.31 128.07 59.54"/></clipPath><clipPath id="clip-path-3"><polygon class="cls-1" points="128.97 112.45 95.68 102.45 95.68 44.45 127.97 59.45 128.97 112.45"/></clipPath></defs><title>Logo-NetBeans-160401</title><g class="cls-2"><polygon class="cls-3" points="130 93.68 103.23 81.2 102.54 47.84 130.79 33.97 157.56 46.45 158.25 79.81 130 93.68"/></g><g class="cls-4"><polygon class="cls-5" points="129 93.68 102.23 81.2 101.54 47.84 129.79 33.97 156.56 46.45 157.25 79.81 129 93.68"/></g><g class="cls-6"><polygon class="cls-7" points="129 93.68 102.23 81.2 101.54 47.84 129.79 33.97 156.56 46.45 157.25 79.81 129 93.68"/></g><polygon class="cls-8" points="96.35 85.12 108.35 77.45 107.35 51.45 95.68 44.45 96.35 85.12"/><polyline class="cls-9" points="150.58 50.41 162.59 42.59 163.43 83.36 151 76"/><text class="cls-10" transform="translate(180.64 73.84)"><tspan class="cls-11">Ne</tspan><tspan class="cls-11" x="46.8" y="0">t</tspan><tspan x="62.78" y="0">Beans</tspan></text><rect class="cls-12" x="287.4" y="84.87" width="57.52" height="20.13" rx="10.07" ry="10.07"/><text class="cls-13" transform="translate(305.37 100.04)">IDE</text><polyline class="cls-14" points="128.97 112.45 127.97 59.45 210 22"/><line class="cls-14" x1="127.97" y1="59.45" x2="49" y2="23"/></svg>