<?xml version="1.0" encoding="UTF-8"?>
<!--

    Licensed to the Apache Software Foundation (ASF) under one
    or more contributor license agreements.  See the NOTICE file
    distributed with this work for additional information
    regarding copyright ownership.  The ASF licenses this file
    to you under the Apache License, Version 2.0 (the
    "License"); you may not use this file except in compliance
    with the License.  You may obtain a copy of the License at

      http://www.apache.org/licenses/LICENSE-2.0

    Unless required by applicable law or agreed to in writing,
    software distributed under the License is distributed on an
    "AS IS" BASIS, WITHOUT WARRANTIES OR CONDITIONS OF ANY
    KIND, either express or implied.  See the License for the
    specific language governing permissions and limitations
    under the License.

-->
<svg xmlns="http://www.w3.org/2000/svg" xmlns:xlink="http://www.w3.org/1999/xlink" width="1242px" height="768px" viewBox="0 0 1242 768" version="1.1">
  <title>Apache NetBeans</title>
  <defs>
    <filter x="-50%" y="-50%" width="200%" height="200%" filterUnits="objectBoundingBox" id="shadow">
      <feMorphology radius="4" in="SourceAlpha" operator="dilate" result="shadowSpreadOuter1"/>
      <feOffset dx="0" dy="0" in="shadowSpreadOuter1" result="shadowOffsetOuter1"/>
      <feGaussianBlur stdDeviation="4" in="shadowOffsetOuter1" result="shadowBlurOuter1"/>
      <feColorMatrix values="0 0 0 0 0   0 0 0 0 0   0 0 0 0 0  0 0 0 0.4 0" in="shadowBlurOuter1" type="matrix" result="shadowMatrixOuter1"/>
      <feMerge>
        <feMergeNode in="shadowMatrixOuter1"/>
        <feMergeNode in="SourceGraphic"/>
      </feMerge>
    </filter>
    <filter x="-50%" y="-50%" width="200%" height="200%" filterUnits="objectBoundingBox" id="text-shadow">
      <feOffset dx="0" dy="0" in="SourceAlpha" result="shadowOffsetOuter1"/>
      <feGaussianBlur stdDeviation="2" in="shadowOffsetOuter1" result="shadowBlurOuter1"/>
      <feColorMatrix values="0 0 0 0 0   0 0 0 0 0   0 0 0 0 0  0 0 0 0.6 0" in="shadowBlurOuter1" type="matrix" result="shadowMatrixOuter1"/>
      <feMerge>
        <feMergeNode in="shadowMatrixOuter1"/>
        <feMergeNode in="SourceGraphic"/>
      </feMerge>
    </filter>
  </defs>
  <g id="splash" stroke="none" stroke-width="1" fill="none" fill-rule="evenodd">
    <rect id="white" fill="#FFFFFF" x="0" y="0" width="1242" height="768"/>
    <g id="splash-background">
      <path d="M0,0 L0,597 L616,0 L0,0 Z" id="red" fill="#E50549" filter="url(#shadow)"/>
      <path d="M381,768 L1173,0 L1244,0 L1242,478 L940,768 L381,768 Z" id="blue" fill="#006FE0" filter="url(#shadow)"/>
      <path d="M896,0 L1242,0 L1242,350 L896,0 Z" id="red-tr" fill="#E50549" filter="url(#shadow)"/>
      <path d="M0,0 L0,117 L670,768 L1203,768 L413,0 L0,0 Z" id="green" fill="#9FCD15" filter="url(#shadow)"/>
    </g>
    <rect id="textbg" opacity="0.8" fill="#FFFFFF" x="0" y="528" width="1244" height="240" filter='url(#shadow)'/>
    <g id="logo" transform="translate(32.000000, 559.000000)" filter="url(#shadow)">
      <path d="M75,0 L75,33.3707865 L29.0540541,60 L0,43.1460674 L75,0 L75,0 Z" fill="#A1C535"/>
      <path d="M150,43.1460674 L120.945946,60 L75,33.3707865 L75,0 L150,43.1460674 L150,43.1460674 Z" fill="#ADD439"/>
      <path d="M149,129 L120,112.203125 L120,59.796875 L149,43 L149,129 L149,129 Z" fill="#1B6AC6"/>
      <path d="M75,172 L75,138.629213 L120.945946,112 L150,128.853933 L75,172 L75,172 Z" fill="#2E90E8"/>
      <path d="M0,128.853933 L29.0540541,112 L75,138.629213 L75,172 L0,128.853933 L0,128.853933 Z" fill="#EA205E"/>
      <path d="M0,43 L29,59.796875 L29,112.203125 L0,129 L0,43 L0,43 Z" fill="#A5073E"/>
      <path d="M29,59.6687898 L74.5,33 L120,59.6687898 L74.5,86 L29,59.6687898 L29,59.6687898 Z" fill="#F1F6E2"/>
      <path d="M75,86.2212766 L120,60 L120,112.442553 L75,139 L75,86.2212766 L75,86.2212766 Z" fill="#CEDBE6"/>
      <path d="M29,60 L74,86.2212766 L74,139 L29,112.442553 L29,60 L29,60 Z" fill="#FFFFFF"/>
    </g>
    <path d="M272.515887,600 L284.380199,679.702577 L263.16228,679.702577 L262.12846,665.37679 L254.694804,665.37679 L253.464067,679.702577 L232,679.702577 L242.535115,600 L272.515887,600 Z M261.537706,651.24792 C260.487471,642.222465 259.437252,631.080297 258.387018,617.821083 C256.286548,633.049487 254.973774,644.191655 254.448657,651.24792 L261.537706,651.24792 Z M307.567299,614.375017 L307.222692,620.13487 C308.994963,617.804661 310.947714,616.065236 313.081004,614.916542 C315.214293,613.767847 317.544467,613.193509 320.071594,613.193509 C323.156659,613.193509 325.823231,614.022197 328.07139,615.679599 C330.319548,617.337001 331.722576,619.248728 332.280513,621.414837 C332.83845,623.580946 333.117414,627.256713 333.117414,632.442247 L333.117414,659.961544 C333.117414,665.901934 332.764606,670.127425 332.05898,672.638143 C331.353353,675.14886 329.909302,677.15084 327.726783,678.644143 C325.544264,680.137446 322.910511,680.884086 319.825447,680.884086 C317.363959,680.884086 315.083014,680.309747 312.982545,679.161053 C310.882075,678.012358 308.962143,676.305752 307.222692,674.041184 L307.222692,689.006955 L287.33397,689.006955 L287.33397,614.375017 L307.567299,614.375017 Z M313.228692,633.377608 C313.228692,629.340768 313.081005,626.895727 312.785627,626.042411 C312.490248,625.189095 311.669764,624.762444 310.324151,624.762444 C309.011358,624.762444 308.166259,625.254734 307.788831,626.239329 C307.411403,627.223924 307.222692,629.603327 307.222692,633.377608 L307.222692,660.453839 C307.222692,664.392219 307.419608,666.85367 307.813446,667.838265 C308.207284,668.822861 309.060587,669.315151 310.373381,669.315151 C311.653354,669.315151 312.449223,668.863885 312.761012,667.961339 C313.0728,667.058794 313.228692,664.868102 313.228692,661.3892 L313.228692,633.377608 Z M357.436793,639.678985 L338.778808,639.678985 L338.778808,635.297559 C338.778808,630.243304 339.361352,626.346007 340.526456,623.60555 C341.69156,620.865094 344.029938,618.444667 347.541661,616.344197 C351.053384,614.243728 355.615273,613.193509 361.227465,613.193509 C367.955532,613.193509 373.02612,614.38321 376.439384,616.762648 C379.852647,619.142087 381.903856,622.063008 382.593072,625.525501 C383.282289,628.987994 383.626892,636.117997 383.626892,646.915723 L383.626892,679.702577 L364.279695,679.702577 L364.279695,673.893495 C363.065361,676.223704 361.498237,677.971334 359.578276,679.136438 C357.658316,680.301542 355.369166,680.884086 352.71076,680.884086 C349.231857,680.884086 346.040175,679.90771 343.13562,677.95493 C340.231064,676.002149 338.778808,671.72743 338.778808,665.130642 L338.778808,659.764626 C338.778808,654.87447 339.550063,651.543306 341.092595,649.771035 C342.635127,647.998764 346.458581,645.931145 352.563071,643.568117 C359.094219,641.008169 362.589479,639.285154 363.048957,638.399018 C363.508434,637.512883 363.73817,635.707819 363.73817,632.983772 C363.73817,629.570509 363.48382,627.346998 362.975113,626.313173 C362.466405,625.279348 361.621307,624.762444 360.439793,624.762444 C359.094179,624.762444 358.257286,625.1973 357.929088,626.067026 C357.600889,626.936751 357.436793,629.193081 357.436793,632.836083 L357.436793,639.678985 Z M363.73817,648.638756 C360.554646,650.968965 358.708557,652.921716 358.19985,654.497068 C357.691143,656.07242 357.436793,658.336955 357.436793,661.29074 C357.436793,664.671184 357.658323,666.85367 358.101391,667.838265 C358.544459,668.822861 359.422376,669.315151 360.73517,669.315151 C361.982324,669.315151 362.794602,668.929523 363.172031,668.158257 C363.549459,667.386991 363.73817,665.360396 363.73817,662.078413 L363.73817,648.638756 Z M434.431747,639.039002 L415.675303,639.039002 L415.675303,631.506887 C415.675303,628.8813 415.461978,627.10085 415.03532,626.165485 C414.608662,625.230119 413.820998,624.762444 412.672303,624.762444 C411.523609,624.762444 410.752354,625.172686 410.358516,625.993182 C409.964678,626.813677 409.767762,628.651561 409.767762,631.506887 L409.767762,662.32456 C409.767762,664.654769 410.063136,666.402399 410.653893,667.567503 C411.24465,668.732607 412.114363,669.315151 413.263057,669.315151 C414.608671,669.315151 415.519408,668.707993 415.995295,667.493659 C416.471183,666.279325 416.709123,663.981971 416.709123,660.601527 L416.709123,652.823265 L434.431747,652.823265 C434.398927,658.041619 434.210216,661.955326 433.865608,664.564503 C433.520999,667.17368 432.421551,669.848457 430.56723,672.588913 C428.712909,675.32937 426.292483,677.396988 423.305878,678.791831 C420.319272,680.186675 416.627096,680.884086 412.229238,680.884086 C406.617045,680.884086 402.170024,679.92412 398.88804,678.004159 C395.606057,676.084199 393.284088,673.393012 391.922065,669.93052 C390.560041,666.468027 389.87904,661.55333 389.87904,655.186281 L389.87904,636.626756 C389.87904,631.080203 390.436969,626.895737 391.552843,624.073231 C392.668718,621.250725 395.04812,618.73184 398.691122,616.516501 C402.334124,614.301162 406.764736,613.193509 411.98309,613.193509 C417.168625,613.193509 421.599236,614.292957 425.275058,616.491886 C428.95088,618.690815 431.395921,621.46405 432.610255,624.811673 C433.824589,628.159297 434.431747,632.901692 434.431747,639.039002 Z M460.22801,600 L460.22801,617.919542 C461.934642,616.34419 463.78073,615.162693 465.76633,614.375017 C467.75193,613.587341 469.876983,613.193509 472.141552,613.193509 C475.620455,613.193509 478.582401,614.079631 481.027479,615.851902 C483.472556,617.624174 484.965837,619.667178 485.507364,621.980976 C486.048891,624.294775 486.319651,628.520266 486.319651,634.657575 L486.319651,679.702577 L466.430929,679.702577 L466.430929,633.722215 C466.430929,629.915113 466.242217,627.470072 465.864789,626.387018 C465.487361,625.303963 464.642263,624.762444 463.32947,624.762444 C462.115136,624.762444 461.294652,625.320373 460.867994,626.436247 C460.441336,627.552122 460.22801,629.767427 460.22801,633.082231 L460.22801,679.702577 L440.339288,679.702577 L440.339288,600 L460.22801,600 Z M538.207555,648.195691 L512.460521,648.195691 L512.460521,662.32456 C512.460521,665.278346 512.673847,667.181868 513.100505,668.035183 C513.527162,668.888499 514.347646,669.315151 515.56198,669.315151 C517.071693,669.315151 518.080887,668.749017 518.589595,667.616733 C519.098302,666.484448 519.352652,664.293757 519.352652,661.044593 L519.352652,652.429429 L538.207555,652.429429 L538.207555,657.253921 C538.207555,661.290761 537.953205,664.392189 537.444497,666.558298 C536.93579,668.724407 535.746089,671.038171 533.875358,673.499659 C532.004627,675.961147 529.63343,677.807235 526.761694,679.037979 C523.889958,680.268723 520.288035,680.884086 515.955816,680.884086 C511.754877,680.884086 508.046291,680.276928 504.829947,679.062594 C501.613603,677.84826 499.111128,676.182678 497.322446,674.065798 C495.533765,671.948919 494.294835,669.618745 493.605618,667.075208 C492.916402,664.531671 492.571799,660.831289 492.571799,655.973953 L492.571799,636.922133 C492.571799,631.211481 493.343053,626.707026 494.885586,623.408632 C496.428118,620.110239 498.955208,617.583149 502.46693,615.827288 C505.978653,614.071426 510.015432,613.193509 514.57739,613.193509 C520.156762,613.193509 524.759675,614.251933 528.386268,616.368812 C532.01286,618.485692 534.556359,621.291746 536.016842,624.787059 C537.477324,628.282371 538.207555,633.197068 538.207555,639.531297 L538.207555,648.195691 Z M518.269603,637.562116 L518.269603,632.786854 C518.269603,629.406411 518.089097,627.223924 517.728079,626.239329 C517.36706,625.254734 516.628625,624.762444 515.512751,624.762444 C514.134317,624.762444 513.281014,625.18089 512.952816,626.017796 C512.624618,626.854702 512.460521,629.111032 512.460521,632.786854 L512.460521,637.562116 L518.269603,637.562116 Z M609.344197,600 L609.344197,679.702577 L591.178508,679.702577 L580.397245,643.469658 L580.397245,679.702577 L563.068458,679.702577 L563.068458,600 L580.397245,600 L592.01541,635.888313 L592.01541,600 L609.344197,600 Z M662.118233,648.195691 L636.371199,648.195691 L636.371199,662.32456 C636.371199,665.278346 636.584524,667.181868 637.011182,668.035183 C637.43784,668.888499 638.258324,669.315151 639.472658,669.315151 C640.98237,669.315151 641.991565,668.749017 642.500273,667.616733 C643.00898,666.484448 643.26333,664.293757 643.26333,661.044593 L643.26333,652.429429 L662.118233,652.429429 L662.118233,657.253921 C662.118233,661.290761 661.863883,664.392189 661.355175,666.558298 C660.846468,668.724407 659.656766,671.038171 657.786036,673.499659 C655.915305,675.961147 653.544107,677.807235 650.672371,679.037979 C647.800636,680.268723 644.198713,680.884086 639.866494,680.884086 C635.665555,680.884086 631.956969,680.276928 628.740625,679.062594 C625.52428,677.84826 623.021805,676.182678 621.233124,674.065798 C619.444443,671.948919 618.205513,669.618745 617.516296,667.075208 C616.82708,664.531671 616.482476,660.831289 616.482476,655.973953 L616.482476,636.922133 C616.482476,631.211481 617.253731,626.707026 618.796263,623.408632 C620.338796,620.110239 622.865885,617.583149 626.377608,615.827288 C629.889331,614.071426 633.92611,613.193509 638.488068,613.193509 C644.06744,613.193509 648.670353,614.251933 652.296945,616.368812 C655.923537,618.485692 658.467037,621.291746 659.927519,624.787059 C661.388002,628.282371 662.118233,633.197068 662.118233,639.531297 L662.118233,648.195691 Z M642.180281,637.562116 L642.180281,632.786854 C642.180281,629.406411 641.999775,627.223924 641.638756,626.239329 C641.277738,625.254734 640.539303,624.762444 639.423428,624.762444 C638.044995,624.762444 637.191692,625.18089 636.863494,626.017796 C636.535295,626.854702 636.371199,629.111032 636.371199,632.786854 L636.371199,637.562116 L642.180281,637.562116 Z M689.588299,605.661394 L689.588299,615.950361 L694.954316,615.950361 L694.954316,626.288559 L689.588299,626.288559 L689.588299,661.241511 C689.588299,665.54091 689.80983,667.936722 690.252898,668.42902 C690.695966,668.921317 692.542054,669.167462 695.791218,669.167462 L695.791218,679.702577 L687.766808,679.702577 C683.23767,679.702577 680.004964,679.513866 678.068594,679.136438 C676.132224,678.75901 674.425618,677.889297 672.948725,676.527274 C671.471832,675.165251 670.552891,673.606332 670.191872,671.85047 C669.830854,670.094609 669.650348,665.967576 669.650348,659.469249 L669.650348,626.288559 L665.36738,626.288559 L665.36738,615.950361 L669.650348,615.950361 L669.650348,605.661394 L689.588299,605.661394 Z M699.926497,600 L720.602891,600 C727.134039,600 732.081555,600.5087 735.445588,601.526115 C738.809622,602.54353 741.525423,604.602944 743.593072,607.704418 C745.660722,610.805893 746.694532,615.802638 746.694532,622.694804 C746.694532,627.355221 745.964301,630.604336 744.503818,632.442247 C743.043336,634.280158 740.163438,635.69139 735.864039,636.675985 C740.655736,637.75904 743.904851,639.555899 745.611482,642.066617 C747.318114,644.577334 748.171417,648.425403 748.171417,653.610937 L748.171417,660.995363 C748.171417,666.377817 747.556054,670.365367 746.32531,672.958134 C745.094566,675.550902 743.13361,677.323146 740.442384,678.274922 C737.751157,679.226697 732.237507,679.702577 723.901268,679.702577 L699.926497,679.702577 L699.926497,600 Z M720.652121,613.636574 L720.652121,631.359198 C721.538256,631.326378 722.227462,631.309969 722.71976,631.309969 C724.75459,631.309969 726.050954,630.809474 726.608891,629.808469 C727.166829,628.807464 727.445793,625.943976 727.445793,621.217919 C727.445793,618.723611 727.216058,616.975981 726.75658,615.974976 C726.297102,614.973971 725.698149,614.342199 724.959703,614.07964 C724.221256,613.817081 722.78541,613.669394 720.652121,613.636574 Z M720.652121,643.765035 L720.652121,666.066003 C723.573086,665.967543 725.435584,665.508073 726.23967,664.687577 C727.043756,663.867081 727.445793,661.848691 727.445793,658.632347 L727.445793,651.198691 C727.445793,647.785428 727.08478,645.717809 726.362744,644.995773 C725.640707,644.273736 723.737185,643.863494 720.652121,643.765035 Z M800.059321,648.195691 L774.312287,648.195691 L774.312287,662.32456 C774.312287,665.278346 774.525613,667.181868 774.952271,668.035183 C775.378928,668.888499 776.199412,669.315151 777.413746,669.315151 C778.923459,669.315151 779.932653,668.749017 780.441361,667.616733 C780.950068,666.484448 781.204418,664.293757 781.204418,661.044593 L781.204418,652.429429 L800.059321,652.429429 L800.059321,657.253921 C800.059321,661.290761 799.804971,664.392189 799.296263,666.558298 C798.787556,668.724407 797.597855,671.038171 795.727124,673.499659 C793.856393,675.961147 791.485196,677.807235 788.61346,679.037979 C785.741724,680.268723 782.139801,680.884086 777.807582,680.884086 C773.606643,680.884086 769.898057,680.276928 766.681713,679.062594 C763.465369,677.84826 760.962894,676.182678 759.174212,674.065798 C757.385531,671.948919 756.146601,669.618745 755.457384,667.075208 C754.768168,664.531671 754.423565,660.831289 754.423565,655.973953 L754.423565,636.922133 C754.423565,631.211481 755.194819,626.707026 756.737352,623.408632 C758.279884,620.110239 760.806974,617.583149 764.318696,615.827288 C767.830419,614.071426 771.867198,613.193509 776.429156,613.193509 C782.008528,613.193509 786.611441,614.251933 790.238034,616.368812 C793.864626,618.485692 796.408125,621.291746 797.868608,624.787059 C799.32909,628.282371 800.059321,633.197068 800.059321,639.531297 L800.059321,648.195691 Z M780.121369,637.562116 L780.121369,632.786854 C780.121369,629.406411 779.940863,627.223924 779.579845,626.239329 C779.218826,625.254734 778.480391,624.762444 777.364517,624.762444 C775.986083,624.762444 775.13278,625.18089 774.804582,626.017796 C774.476384,626.854702 774.312287,629.111032 774.312287,632.786854 L774.312287,637.562116 L780.121369,637.562116 Z M824.32947,639.678985 L805.671485,639.678985 L805.671485,635.297559 C805.671485,630.243304 806.254028,626.346007 807.419133,623.60555 C808.584237,620.865094 810.922615,618.444667 814.434338,616.344197 C817.946061,614.243728 822.50795,613.193509 828.120142,613.193509 C834.848209,613.193509 839.918797,614.38321 843.332061,616.762648 C846.745324,619.142087 848.796533,622.063008 849.485749,625.525501 C850.174966,628.987994 850.519569,636.117997 850.519569,646.915723 L850.519569,679.702577 L831.172371,679.702577 L831.172371,673.893495 C829.958037,676.223704 828.390914,677.971334 826.470953,679.136438 C824.550993,680.301542 822.261843,680.884086 819.603437,680.884086 C816.124534,680.884086 812.932852,679.90771 810.028297,677.95493 C807.123741,676.002149 805.671485,671.72743 805.671485,665.130642 L805.671485,659.764626 C805.671485,654.87447 806.44274,651.543306 807.985272,649.771035 C809.527804,647.998764 813.351258,645.931145 819.455748,643.568117 C825.986896,641.008169 829.482156,639.285154 829.941634,638.399018 C830.401111,637.512883 830.630847,635.707819 830.630847,632.983772 C830.630847,629.570509 830.376497,627.346998 829.867789,626.313173 C829.359082,625.279348 828.513984,624.762444 827.33247,624.762444 C825.986856,624.762444 825.149963,625.1973 824.821765,626.067026 C824.493566,626.936751 824.32947,629.193081 824.32947,632.836083 L824.32947,639.678985 Z M830.630847,648.638756 C827.447323,650.968965 825.601234,652.921716 825.092527,654.497068 C824.583819,656.07242 824.32947,658.336955 824.32947,661.29074 C824.32947,664.671184 824.551,666.85367 824.994068,667.838265 C825.437136,668.822861 826.315053,669.315151 827.627847,669.315151 C828.875001,669.315151 829.687279,668.929523 830.064707,668.158257 C830.442136,667.386991 830.630847,665.360396 830.630847,662.078413 L830.630847,648.638756 Z M877.5958,614.375017 L877.251193,620.381017 C878.695266,617.985169 880.459306,616.18831 882.543366,614.990386 C884.627425,613.792462 887.031442,613.193509 889.755489,613.193509 C893.168752,613.193509 895.958396,613.997583 898.124506,615.605755 C900.290615,617.213927 901.685437,619.240521 902.309014,621.685599 C902.932591,624.130677 903.244375,628.208481 903.244375,633.919133 L903.244375,679.702577 L883.355653,679.702577 L883.355653,634.460657 C883.355653,629.96434 883.207965,627.223924 882.912587,626.239329 C882.617208,625.254734 881.796725,624.762444 880.451111,624.762444 C879.039858,624.762444 878.153736,625.328577 877.792718,626.460862 C877.4317,627.593146 877.251193,630.620731 877.251193,635.543707 L877.251193,679.702577 L857.362471,679.702577 L857.362471,614.375017 L877.5958,614.375017 Z M950.701623,635.248329 L933.077458,635.248329 L933.077458,631.703805 C933.077458,628.68438 932.905157,626.772653 932.560548,625.968567 C932.21594,625.164481 931.354432,624.762444 929.975999,624.762444 C928.860124,624.762444 928.023231,625.131661 927.465294,625.870108 C926.907357,626.608554 926.628392,627.716207 926.628392,629.1931 C926.628392,631.19511 926.767874,632.663775 927.046843,633.599141 C927.325812,634.534506 928.162705,635.560111 929.557548,636.675985 C930.952391,637.79186 933.815879,639.416417 938.148098,641.549707 C943.924389,644.372213 947.715023,647.03058 949.520115,649.524887 C951.325206,652.019195 952.227738,655.645733 952.227738,660.404609 C952.227738,665.721423 951.538531,669.733588 950.160098,672.441225 C948.781665,675.148861 946.476106,677.23289 943.243352,678.693372 C940.010598,680.153855 936.113301,680.884086 931.551343,680.884086 C926.497088,680.884086 922.173139,680.096421 918.579367,678.521069 C914.985595,676.945717 912.515939,674.812459 911.170326,672.121233 C909.824713,669.430006 909.151916,665.360407 909.151916,659.912314 L909.151916,656.761626 L926.776081,656.761626 L926.776081,660.896904 C926.776081,664.408627 926.997611,666.689572 927.440679,667.739806 C927.883747,668.790041 928.761664,669.315151 930.074458,669.315151 C931.485711,669.315151 932.470291,668.962343 933.028229,668.256716 C933.586166,667.55109 933.86513,666.066014 933.86513,663.801446 C933.86513,660.683561 933.504117,658.73081 932.782081,657.943134 C932.027225,657.155458 928.170952,654.825284 921.213146,650.952543 C915.371215,647.67056 911.810316,644.692204 910.530342,642.017387 C909.250369,639.34257 908.610391,636.167299 908.610391,632.491477 C908.610391,627.273123 909.299598,623.425054 910.678031,620.947157 C912.056464,618.469259 914.394842,616.557532 917.693236,615.211919 C920.99163,613.866305 924.823288,613.193509 929.188327,613.193509 C933.520545,613.193509 937.204517,613.743233 940.240352,614.842697 C943.276187,615.942162 945.60636,617.394418 947.230942,619.199509 C948.855524,621.0046 949.840105,622.678387 950.184713,624.220919 C950.529321,625.763452 950.701623,628.175673 950.701623,631.457657 L950.701623,635.248329 Z" id="Apache-NetBeans" fill="#E50549" filter="url(#text-shadow)"/>
  </g>
</svg>
