<svg id="Ebene_1" data-name="Ebene 1" xmlns="http://www.w3.org/2000/svg" xmlns:xlink="http://www.w3.org/1999/xlink" viewBox="0 0 210 137"><defs><style>.cls-1,.cls-10,.cls-3,.cls-5,.cls-7{fill:none;}.cls-2{clip-path:url(#clip-path);}.cls-3{stroke:#96d823;}.cls-10,.cls-3,.cls-5,.cls-7{stroke-miterlimit:10;}.cls-3,.cls-5,.cls-7{stroke-width:12px;}.cls-4{clip-path:url(#clip-path-2);}.cls-5{stroke:#1ccec6;}.cls-6{clip-path:url(#clip-path-3);}.cls-7{stroke:#ea1f5e;}.cls-8{fill:#a5043e;}.cls-9{fill:#1897a8;}.cls-10{stroke:#fff;stroke-width:10px;}</style><clipPath id="clip-path"><polygon class="cls-1" points="72.35 44.29 106.88 27.34 139.59 42.59 105.07 59.54 72.35 44.29"/></clipPath><clipPath id="clip-path-2"><polygon class="cls-1" points="104.07 59.54 138.59 42.59 139.43 83.36 104.91 100.31 104.07 59.54"/></clipPath><clipPath id="clip-path-3"><polygon class="cls-1" points="104.97 112.45 71.68 102.45 71.68 44.45 103.97 59.45 104.97 112.45"/></clipPath></defs><title>Zeichenfläche 2 Kopie 5</title><g class="cls-2"><polygon class="cls-3" points="106 93.68 79.23 81.2 78.54 47.84 106.79 33.97 133.56 46.45 134.25 79.81 106 93.68"/></g><g class="cls-4"><polygon class="cls-5" points="105 93.68 78.23 81.2 77.54 47.84 105.79 33.97 132.56 46.45 133.25 79.81 105 93.68"/></g><g class="cls-6"><polygon class="cls-7" points="105 93.68 78.23 81.2 77.54 47.84 105.79 33.97 132.56 46.45 133.25 79.81 105 93.68"/></g><polygon class="cls-8" points="72.35 85.12 84.35 77.45 83.35 51.45 71.68 44.45 72.35 85.12"/><polyline class="cls-9" points="126.58 50.41 138.59 42.59 139.43 83.36 127 76"/><polyline class="cls-10" points="104.97 112.45 103.97 59.45 186 22"/><line class="cls-10" x1="103.97" y1="59.45" x2="25" y2="23"/></svg>