<svg id="Ebene_1" data-name="Ebene 1" xmlns="http://www.w3.org/2000/svg" viewBox="0 0 214 137"><defs><style>.cls-1{fill:#62ff82;}.cls-2{fill:#b51515;}.cls-3{fill:#d63232;}.cls-4{fill:#467fc0;}</style></defs><title>Zeichenfläche 2</title><line class="cls-1" x1="126.39" y1="35.97" x2="88.17" y2="29.6"/><path class="cls-2" d="M127.72,31.15,89.5,24.78c-6.3-1-9,8.59-2.66,9.64l38.22,6.37c6.3,1,9-8.59,2.66-9.64Z"/><circle class="cls-1" cx="84.15" cy="28.22" r="2.7"/><path class="cls-2" d="M81.85,28.22c0-.18.24-1.13,0-.48a1.86,1.86,0,0,1,.5-1q.4-.47.13-.19t.19-.13a1.23,1.23,0,0,1,.63-.36q.65-.24.07-.06l.75-.12c.18,0,1.13.24.48,0l.69.27q.88.76.47.36t.13.19a1.23,1.23,0,0,1,.36.63q.21.59.1.21-.15-.57.08.61c0,.18-.24,1.13,0,.48a3.13,3.13,0,0,1-.73,1.25c.46-.49-.52.3-.71.4q-.59.21-.21.1t-.24,0c-.28,0-1.61-.23-.85,0a3.23,3.23,0,0,1-1.25-.73c.57.52-.27-.48-.4-.71q-.21-.59-.1-.21.15.57-.08-.61c.14,2.61,2.2,5.13,5,5,2.59-.12,5.15-2.2,5-5A7.7,7.7,0,1,0,84,35.91c4.4.13,7.62-3.49,7.84-7.69a5,5,0,0,0-5-5A5.11,5.11,0,0,0,81.85,28.22Z"/><line class="cls-1" x1="80.39" y1="31.97" x2="58.17" y2="43.6"/><path class="cls-2" d="M77.87,27.66,55.64,39.28c-5.7,3-.65,11.62,5,8.63L82.92,36.29c5.7-3,.65-11.62-5-8.63Z"/><line class="cls-1" x1="97.97" y1="64.87" x2="100.49" y2="103"/><path class="cls-3" d="M93,64.87,95.49,103c.42,6.39,10.42,6.44,10,0L103,64.87c-.42-6.39-10.42-6.44-10,0Z"/><line class="cls-1" x1="130.97" y1="42.87" x2="131.49" y2="81"/><path class="cls-3" d="M126,42.87,126.49,81c.09,6.43,10.09,6.45,10,0L136,42.87c-.09-6.43-10.09-6.45-10,0Z"/><line class="cls-1" x1="55.97" y1="51.87" x2="59.49" y2="83"/><path class="cls-3" d="M51,51.87,54.49,83c.71,6.32,10.72,6.39,10,0L61,51.87c-.71-6.32-10.72-6.39-10,0Z"/><line class="cls-1" x1="126.39" y1="88.97" x2="105.17" y2="106.6"/><path class="cls-3" d="M122.86,85.44l-21.22,17.63c-5,4.12,2.15,11.16,7.07,7.07l21.22-17.63c5-4.12-2.15-11.16-7.07-7.07Z"/><line class="cls-1" x1="127.39" y1="39.97" x2="103.17" y2="56.6"/><path class="cls-3" d="M124.87,35.66,100.64,52.28c-5.27,3.62-.28,12.29,5,8.63l24.22-16.63c5.27-3.62.28-12.29-5-8.63Z"/><line class="cls-1" x1="93.39" y1="104.97" x2="65.17" y2="90.6"/><path class="cls-3" d="M95.92,100.66,67.69,86.28C62,83.37,56.9,92,62.64,94.92l28.22,14.37c5.72,2.91,10.79-5.71,5-8.63Z"/><line class="cls-1" x1="93.39" y1="56.97" x2="61.17" y2="47.6"/><path class="cls-3" d="M94.72,52.15,62.5,42.78c-6.19-1.8-8.84,7.85-2.66,9.64L92.06,61.8c6.19,1.8,8.84-7.85,2.66-9.64Z"/><circle class="cls-4" cx="54.15" cy="46.22" r="2.7"/><path class="cls-3" d="M49.35,46.22l0,.29.27-2a3.79,3.79,0,0,1-.22.82l.76-1.79a2.7,2.7,0,0,1-.28.48L51,42.51a3.86,3.86,0,0,1-.58.58L52,41.92a2.7,2.7,0,0,1-.48.28l1.79-.76a3.79,3.79,0,0,1-.82.22l2-.27a2.74,2.74,0,0,1-.59,0l2,.27a3.79,3.79,0,0,1-.82-.22l1.79.76a2.7,2.7,0,0,1-.48-.28l1.52,1.17a3.86,3.86,0,0,1-.58-.58L58.45,44a2.7,2.7,0,0,1-.28-.48l.76,1.79a3.79,3.79,0,0,1-.22-.82l.27,2a2.74,2.74,0,0,1,0-.59l-.27,2a3.79,3.79,0,0,1,.22-.82l-.76,1.79a2.7,2.7,0,0,1,.28-.48l-1.17,1.52a3.86,3.86,0,0,1,.58-.58l-1.52,1.17a2.7,2.7,0,0,1,.48-.28L55,51a3.79,3.79,0,0,1,.82-.22l-2,.27a2.74,2.74,0,0,1,.59,0l-2-.27a3.79,3.79,0,0,1,.82.22l-1.79-.76a2.7,2.7,0,0,1,.48.28l-1.52-1.17a3.86,3.86,0,0,1,.58.58l-1.17-1.52a2.7,2.7,0,0,1,.28.48l-.76-1.79a3.79,3.79,0,0,1,.22.82l-.27-2,0,.29c.21,3.91,3.3,7.69,7.5,7.5,3.88-.17,7.73-3.3,7.5-7.5a10.7,10.7,0,0,0-3-7.21A10.19,10.19,0,0,0,44,46.22C43.81,51.73,48.64,56.3,54,56.41a10.23,10.23,0,0,0,7.26-2.88,10.72,10.72,0,0,0,3.09-7.31,7.55,7.55,0,0,0-7.5-7.5A7.67,7.67,0,0,0,49.35,46.22Z"/><circle class="cls-4" cx="98.15" cy="59.22" r="2.7"/><path class="cls-3" d="M93.35,59.22l0,.29.27-2a3.79,3.79,0,0,1-.22.82l.76-1.79a2.7,2.7,0,0,1-.28.48L95,55.51a3.86,3.86,0,0,1-.58.58L96,54.92a2.7,2.7,0,0,1-.48.28l1.79-.76a3.79,3.79,0,0,1-.82.22l2-.27a2.74,2.74,0,0,1-.59,0l2,.27a3.79,3.79,0,0,1-.82-.22l1.79.76a2.7,2.7,0,0,1-.48-.28l1.52,1.17a3.86,3.86,0,0,1-.58-.58L102.45,57a2.7,2.7,0,0,1-.28-.48l.76,1.79a3.79,3.79,0,0,1-.22-.82l.27,2a2.74,2.74,0,0,1,0-.59l-.27,2a3.79,3.79,0,0,1,.22-.82l-.76,1.79a2.7,2.7,0,0,1,.28-.48l-1.17,1.52a3.86,3.86,0,0,1,.58-.58l-1.52,1.17a2.7,2.7,0,0,1,.48-.28L99,64a3.79,3.79,0,0,1,.82-.22l-2,.27a2.74,2.74,0,0,1,.59,0l-2-.27a3.79,3.79,0,0,1,.82.22l-1.79-.76a2.7,2.7,0,0,1,.48.28l-1.52-1.17a3.86,3.86,0,0,1,.58.58l-1.17-1.52a2.7,2.7,0,0,1,.28.48l-.76-1.79a3.79,3.79,0,0,1,.22.82l-.27-2,0,.29c.21,3.91,3.3,7.69,7.5,7.5,3.88-.17,7.73-3.3,7.5-7.5a10.7,10.7,0,0,0-3-7.21A10.19,10.19,0,0,0,88,59.22C87.81,64.73,92.64,69.3,98,69.41a10.23,10.23,0,0,0,7.26-2.88,10.72,10.72,0,0,0,3.09-7.31,7.55,7.55,0,0,0-7.5-7.5A7.67,7.67,0,0,0,93.35,59.22Z"/><circle class="cls-4" cx="99.15" cy="108.22" r="2.7"/><path class="cls-3" d="M94.35,108.22l0,.29.27-2a3.79,3.79,0,0,1-.22.82l.76-1.79a2.7,2.7,0,0,1-.28.48L96,104.51a3.86,3.86,0,0,1-.58.58L97,103.92a2.7,2.7,0,0,1-.48.28l1.79-.76a3.79,3.79,0,0,1-.82.22l2-.27a2.74,2.74,0,0,1-.59,0l2,.27a3.79,3.79,0,0,1-.82-.22l1.79.76a2.7,2.7,0,0,1-.48-.28l1.52,1.17a3.86,3.86,0,0,1-.58-.58l1.17,1.52a2.7,2.7,0,0,1-.28-.48l.76,1.79a3.79,3.79,0,0,1-.22-.82l.27,2a2.74,2.74,0,0,1,0-.59l-.27,2a3.79,3.79,0,0,1,.22-.82l-.76,1.79a2.7,2.7,0,0,1,.28-.48l-1.17,1.52a3.86,3.86,0,0,1,.58-.58l-1.52,1.17a2.7,2.7,0,0,1,.48-.28L100,113a3.79,3.79,0,0,1,.82-.22l-2,.27a2.74,2.74,0,0,1,.59,0l-2-.27a3.79,3.79,0,0,1,.82.22l-1.79-.76a2.7,2.7,0,0,1,.48.28l-1.52-1.17a3.86,3.86,0,0,1,.58.58l-1.17-1.52a2.7,2.7,0,0,1,.28.48l-.76-1.79a3.79,3.79,0,0,1,.22.82l-.27-2,0,.29c.21,3.91,3.3,7.69,7.5,7.5,3.88-.17,7.73-3.3,7.5-7.5a10.7,10.7,0,0,0-3-7.21A10.19,10.19,0,0,0,89,108.22c-.15,5.51,4.68,10.08,10.05,10.19a10.23,10.23,0,0,0,7.26-2.88,10.72,10.72,0,0,0,3.09-7.31,7.55,7.55,0,0,0-7.5-7.5A7.67,7.67,0,0,0,94.35,108.22Z"/><circle class="cls-4" cx="131.15" cy="86.22" r="2.7"/><path class="cls-3" d="M126.35,86.22l0,.29.27-2a3.79,3.79,0,0,1-.22.82l.76-1.79a2.7,2.7,0,0,1-.28.48L128,82.51a3.86,3.86,0,0,1-.58.58L129,81.92a2.7,2.7,0,0,1-.48.28l1.79-.76a3.79,3.79,0,0,1-.82.22l2-.27a2.74,2.74,0,0,1-.59,0l2,.27a3.79,3.79,0,0,1-.82-.22l1.79.76a2.7,2.7,0,0,1-.48-.28l1.52,1.17a3.86,3.86,0,0,1-.58-.58L135.45,84a2.7,2.7,0,0,1-.28-.48l.76,1.79a3.79,3.79,0,0,1-.22-.82l.27,2a2.74,2.74,0,0,1,0-.59l-.27,2a3.79,3.79,0,0,1,.22-.82l-.76,1.79a2.7,2.7,0,0,1,.28-.48l-1.17,1.52a3.86,3.86,0,0,1,.58-.58l-1.52,1.17a2.7,2.7,0,0,1,.48-.28L132,91a3.79,3.79,0,0,1,.82-.22l-2,.27a2.74,2.74,0,0,1,.59,0l-2-.27a3.79,3.79,0,0,1,.82.22l-1.79-.76a2.7,2.7,0,0,1,.48.28l-1.52-1.17a3.86,3.86,0,0,1,.58.58l-1.17-1.52a2.7,2.7,0,0,1,.28.48l-.76-1.79a3.79,3.79,0,0,1,.22.82l-.27-2,0,.29c.21,3.91,3.3,7.69,7.5,7.5,3.88-.17,7.73-3.3,7.5-7.5a10.7,10.7,0,0,0-3-7.21A10.19,10.19,0,0,0,121,86.22c-.15,5.51,4.68,10.08,10.05,10.19a10.23,10.23,0,0,0,7.26-2.88,10.72,10.72,0,0,0,3.09-7.31,7.55,7.55,0,0,0-7.5-7.5A7.67,7.67,0,0,0,126.35,86.22Z"/><circle class="cls-4" cx="131.15" cy="37.22" r="2.7"/><path class="cls-3" d="M126.35,37.22l0,.29.27-2a3.79,3.79,0,0,1-.22.82l.76-1.79a2.7,2.7,0,0,1-.28.48L128,33.51a3.86,3.86,0,0,1-.58.58L129,32.92a2.7,2.7,0,0,1-.48.28l1.79-.76a3.79,3.79,0,0,1-.82.22l2-.27a2.74,2.74,0,0,1-.59,0l2,.27a3.79,3.79,0,0,1-.82-.22l1.79.76a2.7,2.7,0,0,1-.48-.28l1.52,1.17a3.86,3.86,0,0,1-.58-.58L135.45,35a2.7,2.7,0,0,1-.28-.48l.76,1.79a3.79,3.79,0,0,1-.22-.82l.27,2a2.74,2.74,0,0,1,0-.59l-.27,2a3.79,3.79,0,0,1,.22-.82l-.76,1.79a2.7,2.7,0,0,1,.28-.48l-1.17,1.52a3.86,3.86,0,0,1,.58-.58l-1.52,1.17a2.7,2.7,0,0,1,.48-.28L132,42a3.79,3.79,0,0,1,.82-.22l-2,.27a2.74,2.74,0,0,1,.59,0l-2-.27a3.79,3.79,0,0,1,.82.22l-1.79-.76a2.7,2.7,0,0,1,.48.28l-1.52-1.17a3.86,3.86,0,0,1,.58.58l-1.17-1.52a2.7,2.7,0,0,1,.28.48l-.76-1.79a3.79,3.79,0,0,1,.22.82l-.27-2,0,.29c.21,3.91,3.3,7.69,7.5,7.5,3.88-.17,7.73-3.3,7.5-7.5a10.7,10.7,0,0,0-3-7.21A10.19,10.19,0,0,0,121,37.22c-.15,5.51,4.68,10.08,10.05,10.19a10.23,10.23,0,0,0,7.26-2.88,10.72,10.72,0,0,0,3.09-7.31,7.55,7.55,0,0,0-7.5-7.5A7.67,7.67,0,0,0,126.35,37.22Z"/><circle class="cls-4" cx="60.15" cy="88.22" r="2.7"/><path class="cls-3" d="M55.35,88.22l0,.29.27-2a3.79,3.79,0,0,1-.22.82l.76-1.79a2.7,2.7,0,0,1-.28.48L57,84.51a3.86,3.86,0,0,1-.58.58L58,83.92a2.7,2.7,0,0,1-.48.28l1.79-.76a3.79,3.79,0,0,1-.82.22l2-.27a2.74,2.74,0,0,1-.59,0l2,.27a3.79,3.79,0,0,1-.82-.22l1.79.76a2.7,2.7,0,0,1-.48-.28l1.52,1.17a3.86,3.86,0,0,1-.58-.58L64.45,86a2.7,2.7,0,0,1-.28-.48l.76,1.79a3.79,3.79,0,0,1-.22-.82l.27,2a2.74,2.74,0,0,1,0-.59l-.27,2a3.79,3.79,0,0,1,.22-.82l-.76,1.79a2.7,2.7,0,0,1,.28-.48l-1.17,1.52a3.86,3.86,0,0,1,.58-.58l-1.52,1.17a2.7,2.7,0,0,1,.48-.28L61,93a3.79,3.79,0,0,1,.82-.22l-2,.27a2.74,2.74,0,0,1,.59,0l-2-.27a3.79,3.79,0,0,1,.82.22l-1.79-.76a2.7,2.7,0,0,1,.48.28l-1.52-1.17a3.86,3.86,0,0,1,.58.58l-1.17-1.52a2.7,2.7,0,0,1,.28.48l-.76-1.79a3.79,3.79,0,0,1,.22.82l-.27-2,0,.29c.21,3.91,3.3,7.69,7.5,7.5,3.88-.17,7.73-3.3,7.5-7.5a10.7,10.7,0,0,0-3-7.21A10.19,10.19,0,0,0,50,88.22C49.81,93.73,54.64,98.3,60,98.41a10.23,10.23,0,0,0,7.26-2.88,10.72,10.72,0,0,0,3.09-7.31,7.55,7.55,0,0,0-7.5-7.5A7.67,7.67,0,0,0,55.35,88.22Z"/></svg>